<?xml version="1.0" encoding="UTF-8" standalone="no"?>
<!DOCTYPE svg PUBLIC "-//W3C//DTD SVG 1.1//EN" "http://www.w3.org/Graphics/SVG/1.1/DTD/svg11.dtd">
<svg width="100%" height="100%" viewBox="0 0 610 573" version="1.1" xmlns="http://www.w3.org/2000/svg" xmlns:xlink="http://www.w3.org/1999/xlink" xml:space="preserve" xmlns:serif="http://www.serif.com/" style="fill-rule:evenodd;clip-rule:evenodd;stroke-linejoin:round;stroke-miterlimit:2;">
    <g transform="matrix(1,0,0,1,-2.49996,-2.13184)">
        <g transform="matrix(0.1065,0,0,-0.1065,-17.3132,699.596)">
            <path d="M4627.24,2660.02C4616.31,2659.45 4603.39,2662.26 4593.62,2667.17C4583.19,2672.4 4572.73,2681.72 4565.98,2691.23C4558.47,2701.82 4552.82,2716.23 4550.6,2729.02C4548.08,2743.56 4548.95,2760.98 4552.35,2775.34C4556.23,2791.71 4564.57,2809.64 4574.13,2823.48C4584.97,2839.19 4600.9,2854.91 4616.44,2865.99C4633.96,2878.47 4656.66,2889.24 4677.27,2895.39C4700.28,2902.26 4728.08,2905.67 4752.09,2905.05C4778.67,2904.36 4809.11,2898.59 4834.25,2889.93C4861.88,2880.41 4891.92,2864.46 4915.53,2847.24C4941.3,2828.45 4967.6,2802.29 4986.86,2776.87C5007.75,2749.29 5026.97,2713.98 5039.17,2681.61C5052.34,2646.69 5061.5,2604.32 5064.35,2567.11C5067.4,2527.17 5064.19,2480.76 5056.04,2441.54C5047.32,2399.62 5030.33,2352.9 5010.42,2315C4989.22,2274.65 4958.21,2231.78 4926.79,2198.75C4893.45,2163.71 4849.42,2128.91 4807.82,2104.25C4763.82,2078.16 4709.03,2055.34 4659.62,2042.12C4607.51,2028.17 4545.39,2020.57 4491.45,2021.17C4434.7,2021.79 4369.62,2031.63 4315.12,2047.45C4257.93,2064.06 4194.88,2092.28 4144.21,2123.56C4091.15,2156.33 4035.41,2202.42 3992.99,2248.14C3948.67,2295.92 3905.33,2357.85 3875.31,2415.7C3843.99,2476.06 3817.56,2550.34 3803.37,2616.84C3788.59,2686.1 3782.55,2768 3786.64,2838.69C3790.9,2912.21 3807.36,2996 3830.9,3065.77C3855.35,3138.23 3894.81,3217.62 3937.51,3281.06C3981.79,3346.84 4042.97,3415.46 4103.02,3467.24C4165.22,3520.87 4245.06,3572.74 4319.19,3608.1C4395.87,3644.69 4489.67,3674.73 4573.27,3689.86C4659.66,3705.49 4761.33,3709.97 4848.79,3702.36C4939.08,3694.5 5041.57,3671.41 5126.63,3640.13C5214.35,3607.86 5310.1,3557.16 5386.28,3503.03C5464.79,3447.24 5546.3,3370.97 5607.43,3296.57C5670.38,3219.97 5730.79,3122.22 5771.48,3031.81C5813.33,2938.81 5846.99,2825.5 5863.04,2724.79C5879.54,2621.27 5882.47,2499.81 5871.32,2395.58C5859.87,2288.53 5830.15,2167.33 5791.12,2067C5751.05,1964.01 5689.1,1851.91 5623.52,1762.97C5556.24,1671.74 5464.88,1577.34 5376.12,1506.85C5285.13,1434.59 5169.46,1365.63 5062.76,1319.63C4953.45,1272.5 4820.62,1235.22 4702.8,1218.25C4582.16,1200.87 4440.91,1199.5 4319.92,1214.2C4196.1,1229.23 4056.19,1265.57 3940.58,1312.37C3822.33,1360.24 3693.86,1433.43 3592.18,1510.47C3488.22,1589.23 3380.93,1695.69 3301.09,1798.81C3219.51,1904.19 3142,2037.77 3090.69,2160.77C3038.28,2286.38 2997.38,2438.73 2979.5,2573.67C2962.84,2685.78 2926.76,2812.11 2881.4,2915.98C2837.17,3017.25 2771.05,3126.95 2701.9,3213.14C2634.53,3297.12 2544.42,3383.45 2457.44,3446.89C2372.75,3508.66 2266.1,3566.86 2168.2,3604.32C2072.96,3640.78 1957.99,3668.28 1856.53,3678.54C1757.89,3688.51 1643.03,3685.06 1545.22,3668.85C1450.21,3653.11 1343.41,3620.65 1255.85,3580.56C1170.87,3541.65 1079.08,3484.08 1007.28,3424.24C937.663,3366.22 866.424,3289.01 814.473,3214.75C764.148,3142.81 717.195,3052.51 687.537,2969.88C658.836,2889.92 637.957,2793.66 631.296,2708.97C624.858,2627.09 629.862,2532.01 645.206,2451.33C660.022,2373.43 688.862,2286.14 723.688,2214.9C757.272,2146.2 806.298,2072.33 856.825,2014.93C905.485,1959.66 969.812,1903.51 1031.35,1863.06C1090.53,1824.17 1164.48,1788.46 1231.84,1766.62C1296.53,1745.66 1374.08,1731.41 1442.01,1728.36C1507.12,1725.43 1582.42,1732 1645.97,1746.49C1706.77,1760.36 1774.55,1785.59 1829.46,1815.16C1881.89,1843.4 1937.85,1883.89 1980.83,1925.12C2021.78,1964.4 2062.84,2015.85 2091.75,2064.68C2119.24,2111.1 2143.72,2168.7 2157.7,2220.8C2170.95,2270.2 2178.58,2329.06 2177.99,2380.21C2177.43,2428.57 2169.31,2484.1 2155.63,2530.49C2142.74,2574.21 2121.12,2622.51 2096.78,2661.04C2073.91,2697.24 2041.94,2735.31 2010,2763.81C1980.11,2790.48 1941.52,2816.47 1905.4,2833.8C1871.76,2849.94 1830.48,2863.19 1793.66,2869.24C1759.52,2874.86 1719.33,2875.87 1685,2871.57C1653.36,2867.6 1617.55,2857.91 1588.4,2844.98C1561.68,2833.14 1532.84,2815.11 1510.78,2795.94C1490.71,2778.49 1470.5,2755.02 1456.61,2732.34C1444.07,2711.86 1433.12,2686.07 1427.57,2662.71C1422.59,2641.79 1420.56,2616.74 1422.62,2595.34C1424.44,2576.34 1430.09,2554.69 1438.27,2537.44C1445.48,2522.24 1456.84,2506.05 1469.08,2494.51C1479.81,2484.39 1494.46,2474.92 1508.31,2469.84C1520.5,2465.36 1535.8,2463.05 1548.73,2464.26C1560.34,2465.35 1573.64,2469.75 1583.39,2476.16C1592.53,2482.17 1601.42,2491.96 1606.39,2501.7C1611.35,2511.45 1620.25,2521.24 1629.39,2527.25C1639.13,2533.66 1652.43,2538.06 1664.05,2539.15C1676.98,2540.36 1692.27,2538.04 1704.46,2533.57C1718.31,2528.49 1732.97,2519.02 1743.7,2508.9C1755.94,2497.36 1767.3,2481.17 1774.51,2465.97C1782.69,2448.72 1788.33,2427.07 1790.16,2408.07C1792.21,2386.66 1790.18,2361.61 1785.21,2340.7C1779.65,2317.33 1768.7,2291.55 1756.16,2271.07C1742.28,2248.39 1722.06,2224.92 1701.99,2207.47C1679.93,2188.3 1651.09,2170.27 1624.38,2158.43C1595.22,2145.5 1559.42,2135.81 1527.77,2131.84C1493.45,2127.54 1453.25,2128.55 1419.12,2134.16C1382.29,2140.22 1341.02,2153.47 1307.37,2169.61C1271.25,2186.94 1232.67,2212.93 1202.78,2239.6C1170.83,2268.1 1138.87,2306.17 1116,2342.37C1091.65,2380.9 1070.03,2429.2 1057.14,2472.92C1043.46,2519.31 1035.34,2574.84 1034.78,2623.2C1034.19,2674.35 1041.82,2733.21 1055.08,2782.61C1069.06,2834.71 1093.53,2892.31 1121.02,2938.73C1149.94,2987.56 1191,3039 1231.95,3078.29C1274.92,3119.52 1330.88,3160.01 1383.32,3188.25C1438.22,3217.82 1506.01,3243.05 1566.81,3256.92C1630.35,3271.41 1705.65,3277.98 1770.77,3275.05C1838.7,3272 1916.24,3257.75 1980.93,3236.78C2048.3,3214.95 2122.24,3179.24 2181.42,3140.34C2242.96,3099.9 2307.29,3043.75 2355.95,2988.48C2406.48,2931.08 2455.5,2857.21 2489.09,2788.51C2523.91,2717.27 2552.75,2629.98 2567.57,2552.08C2582.91,2471.4 2587.92,2376.32 2581.48,2294.44C2574.82,2209.74 2553.94,2113.49 2525.24,2033.53C2495.58,1950.89 2448.63,1860.6 2398.3,1788.66C2346.35,1714.4 2275.11,1637.19 2205.49,1579.17C2133.69,1519.33 2041.91,1461.76 1956.93,1422.85C1869.37,1382.76 1762.56,1350.3 1667.55,1334.56C1569.75,1318.35 1454.88,1314.9 1356.24,1324.87C1254.78,1335.13 1139.82,1362.63 1044.57,1399.08C946.677,1436.55 840.025,1494.75 755.337,1556.52C668.353,1619.96 578.248,1706.29 510.874,1790.27C441.721,1876.46 375.607,1986.16 331.377,2087.43C286.01,2191.3 249.937,2317.63 233.272,2429.74C216.188,2544.67 214.3,2679.33 227.811,2794.73C241.652,2912.96 275.784,3046.63 319.997,3157.15C365.266,3270.31 434.706,3393.33 507.926,3490.76C582.856,3590.47 684.283,3693.47 782.62,3770.19C883.201,3848.67 1010.82,3923.33 1128.38,3972.87C1248.56,4023.52 1394.4,4063.21 1523.63,4080.79C1655.68,4098.75 1810.13,4099.08 1942.29,4082.02C2077.29,4064.6 2229.67,4023.84 2355.47,3971.86C2460.9,3930.24 2588.33,3898.32 2700.97,3885.67C2810.79,3873.34 2938.84,3875.75 3048.07,3892.54C3154.48,3908.9 3274.3,3943.76 3372.73,3987.37C3468.57,4029.83 3572.3,4093.1 3653.69,4159.14C3732.88,4223.4 3814.19,4309.21 3873.8,4391.95C3931.75,4472.39 3986.2,4573.59 4021.07,4666.4C4054.93,4756.55 4080.23,4865.27 4089.29,4961.15C4098.08,5054.2 4094.12,5162.47 4078.2,5254.57C4062.76,5343.87 4031.51,5444.17 3993.17,5526.29C3956.04,5605.85 3901.31,5691.66 3844.58,5758.66C3789.68,5823.49 3716.76,5889.7 3646.74,5937.82C3579.06,5984.33 3494.21,6027.54 3416.67,6054.59C3341.8,6080.71 3251.78,6099.38 3172.67,6104.84C3096.38,6110.1 3007.9,6104.58 2932.93,6089.52C2860.73,6075.02 2779.94,6047.39 2714.14,6014.31C2650.87,5982.51 2582.97,5936.33 2530.38,5888.9C2479.88,5843.36 2428.76,5783.33 2392.15,5726.03C2357.07,5671.1 2325.1,5602.61 2305.88,5540.33C2287.49,5480.74 2275.44,5409.42 2273.6,5347.08C2271.85,5287.56 2278.93,5218.85 2293.15,5161.02C2306.69,5105.91 2330.72,5044.63 2358.54,4995.17C2385,4948.16 2422.64,4898.16 2460.78,4860C2496.93,4823.82 2544.09,4787.78 2588.68,4762.72C2630.84,4739.03 2683,4718.29 2730.01,4706.94C2774.32,4696.25 2826.95,4690.82 2872.5,4692.64C2915.28,4694.35 2964.23,4702.99 3004.89,4716.41C3042.93,4728.96 3084.73,4749.38 3117.8,4771.99C3148.6,4793.06 3180.71,4822.19 3204.37,4851.05C3226.3,4877.8 3247.27,4912.1 3260.7,4943.98C3273.09,4973.37 3282.6,5009.22 3285.99,5040.94C3289.09,5070 3287.89,5103.99 3282.32,5132.67C3277.24,5158.78 3267.02,5188.02 3254.33,5211.39C3242.86,5232.49 3226,5254.86 3208.55,5271.35C3192.92,5286.12 3172.24,5300.41 3152.68,5309.33C3135.31,5317.25 3113.74,5323.19 3094.71,5324.72C3077.95,5326.08 3058.24,5324.34 3042.13,5319.51C3028,5315.28 3012.47,5307.32 3001.14,5297.87C2991.17,5289.55 2981.52,5277.46 2976.11,5265.65C2971.24,5255.05 2968.4,5241.33 2969.08,5229.69C2969.72,5218.77 2973.74,5206.17 2979.7,5197C2985.66,5187.82 2989.69,5175.23 2990.33,5164.3C2991,5152.66 2988.16,5138.94 2983.3,5128.34C2977.89,5116.54 2968.23,5104.45 2958.26,5096.13C2946.94,5086.67 2931.41,5078.72 2917.28,5074.48C2901.17,5069.66 2881.46,5067.91 2864.7,5069.27C2845.67,5070.81 2824.1,5076.74 2806.73,5084.67C2787.16,5093.59 2766.48,5107.87 2750.86,5122.64C2733.4,5139.13 2716.55,5161.51 2705.08,5182.6C2692.38,5205.97 2682.16,5235.22 2677.09,5261.32C2671.51,5290.01 2670.32,5324 2673.42,5353.06C2676.81,5384.77 2686.32,5420.62 2698.7,5450.01C2712.14,5481.89 2733.11,5516.2 2755.04,5542.95C2778.7,5571.81 2810.81,5600.93 2841.61,5622C2874.67,5644.62 2916.48,5665.04 2954.52,5677.59C2995.18,5691 3044.13,5699.65 3086.91,5701.35C3132.46,5703.17 3185.09,5697.75 3229.4,5687.05C3276.41,5675.7 3328.57,5654.97 3370.73,5631.27C3415.32,5606.21 3462.47,5570.17 3498.63,5533.99C3536.76,5495.83 3574.41,5445.84 3600.86,5398.82C3628.69,5349.37 3652.71,5288.08 3666.26,5232.98C3680.48,5175.15 3687.56,5106.44 3685.8,5046.91C3683.96,4984.57 3671.92,4913.26 3653.53,4853.67C3634.31,4791.39 3602.34,4722.89 3567.25,4667.97C3530.65,4610.66 3479.53,4550.63 3429.03,4505.09C3376.44,4457.67 3308.54,4411.49 3245.26,4379.68C3179.47,4346.61 3098.68,4318.97 3026.48,4304.47C2951.51,4289.41 2863.02,4283.89 2786.74,4289.15C2707.63,4294.61 2617.61,4313.28 2542.74,4339.4C2465.19,4366.46 2380.35,4409.66 2312.66,4456.18C2242.64,4504.29 2169.73,4570.5 2114.82,4635.34C2058.09,4702.34 2003.37,4788.15 1966.23,4867.7C1927.9,4949.82 1896.65,5050.12 1881.21,5139.43C1865.29,5231.53 1861.33,5339.8 1870.12,5432.85C1879.18,5528.72 1904.47,5637.45 1938.34,5727.6C1973.21,5820.41 2027.65,5921.61 2085.61,6002.05C2145.22,6084.79 2226.52,6170.59 2305.71,6234.85C2387.11,6300.9 2490.83,6364.16 2586.67,6406.62C2685.11,6450.23 2804.93,6485.1 2911.34,6501.46C3020.56,6518.25 3148.62,6520.66 3258.44,6508.33C3371.08,6495.68 3498.51,6463.76 3603.94,6422.13C3712.01,6379.46 3829.57,6313.77 3922.76,6244.37C4018.23,6173.27 4116.93,6076.87 4190.53,5983.32C4265.9,5887.53 4337.71,5765.89 4385.48,5653.76C4434.37,5539.02 4472.85,5399.68 4490.13,5276.16C4507.8,5149.81 4508.65,5001.96 4492.78,4875.38C4476.55,4745.98 4438,4599.83 4388.61,4479.12C4338.14,4355.79 4261.2,4221.87 4180.35,4115.93C4097.76,4007.74 3986.27,3896.15 3878.36,3813.19C3789.6,3742.7 3698.23,3648.3 3630.96,3557.07C3565.38,3468.14 3503.43,3356.03 3463.36,3253.05C3424.32,3152.71 3394.61,3031.51 3383.16,2924.46C3372.01,2820.23 3374.93,2698.77 3391.43,2595.25C3407.49,2494.55 3441.15,2381.23 3483,2288.23C3523.68,2197.83 3584.1,2100.07 3647.04,2023.47C3708.18,1949.07 3789.69,1872.8 3868.19,1817.02C3944.38,1762.88 4040.13,1712.18 4127.85,1679.91C4212.91,1648.63 4315.4,1625.54 4405.68,1617.68C4493.15,1610.07 4594.82,1614.55 4681.21,1630.18C4764.81,1645.31 4858.61,1675.36 4935.29,1711.94C5009.41,1747.3 5089.25,1799.17 5151.45,1852.8C5211.51,1904.58 5272.69,1973.2 5316.97,2038.98C5359.67,2102.42 5399.13,2181.81 5423.58,2254.27C5447.12,2324.04 5463.58,2407.83 5467.83,2481.35C5471.93,2552.05 5465.88,2633.94 5451.11,2703.2C5436.92,2769.7 5410.49,2843.98 5379.17,2904.34C5349.14,2962.19 5305.81,3024.12 5261.48,3071.9C5219.07,3117.62 5163.33,3163.72 5110.27,3196.48C5059.59,3227.76 4996.55,3255.99 4939.36,3272.59C4884.86,3288.41 4819.77,3298.25 4763.03,3298.87C4709.09,3299.47 4646.97,3291.87 4594.86,3277.92C4545.44,3264.7 4490.66,3241.88 4446.66,3215.79C4405.06,3191.13 4361.02,3156.33 4327.69,3121.29C4296.27,3088.26 4265.25,3045.4 4244.05,3005.04C4224.14,2967.14 4207.15,2920.42 4198.44,2878.5C4190.29,2839.28 4187.07,2792.87 4190.13,2752.93C4192.98,2715.72 4202.14,2673.35 4215.3,2638.43C4227.51,2606.06 4246.73,2570.75 4267.62,2543.17C4286.88,2517.75 4313.17,2491.59 4338.95,2472.8C4362.56,2455.58 4392.6,2439.63 4420.23,2430.11C4445.37,2421.45 4475.81,2415.68 4502.39,2414.99C4526.4,2414.38 4554.2,2417.79 4577.21,2424.65C4597.82,2430.8 4620.52,2441.57 4638.03,2454.05C4653.58,2465.14 4669.5,2480.85 4680.35,2496.56C4689.91,2510.4 4698.25,2528.34 4702.13,2544.7C4705.53,2559.06 4706.4,2576.48 4703.88,2591.02C4701.65,2603.81 4696.01,2618.22 4688.5,2628.81C4681.74,2638.32 4671.28,2647.64 4660.86,2652.87C4651.08,2657.78 4638.17,2660.59 4627.24,2660.02Z" style="fill:none;fill-rule:nonzero;stroke:rgb(102,191,191);stroke-width:65.73px;"/>
        </g>
    </g>
</svg>
